<?xml version="1.0" encoding="UTF-8" standalone="no"?>
<svg
   xmlns:dc="http://purl.org/dc/elements/1.1/"
   xmlns:cc="http://creativecommons.org/ns#"
   xmlns:rdf="http://www.w3.org/1999/02/22-rdf-syntax-ns#"
   xmlns:svg="http://www.w3.org/2000/svg"
   xmlns="http://www.w3.org/2000/svg"
   xmlns:sodipodi="http://sodipodi.sourceforge.net/DTD/sodipodi-0.dtd"
   xmlns:inkscape="http://www.inkscape.org/namespaces/inkscape"
   width="198"
   height="179"
   viewBox="0 0 198 179"
   version="1.1"
   id="svg12"
   sodipodi:docname="instinct.svg"
   inkscape:version="0.92.3 (2405546, 2018-03-11)">
  <metadata
     id="metadata18">
    <rdf:RDF>
      <cc:Work
         rdf:about="">
        <dc:format>image/svg+xml</dc:format>
        <dc:type
           rdf:resource="http://purl.org/dc/dcmitype/StillImage" />
      </cc:Work>
    </rdf:RDF>
  </metadata>
  <defs
     id="defs16" />
  <sodipodi:namedview
     pagecolor="#ffffff"
     bordercolor="#666666"
     borderopacity="1"
     objecttolerance="10"
     gridtolerance="10"
     guidetolerance="10"
     inkscape:pageopacity="0"
     inkscape:pageshadow="2"
     inkscape:window-width="640"
     inkscape:window-height="480"
     id="namedview14"
     showgrid="false"
     inkscape:zoom="1.3184358"
     inkscape:cx="99"
     inkscape:cy="89.5"
     inkscape:window-x="0"
     inkscape:window-y="0"
     inkscape:window-maximized="0"
     inkscape:current-layer="svg12" />
  <title
     id="title2">instinct</title>
  <path
     style="fill:#f9c623;fill-rule:evenodd"
     inkscape:connector-curvature="0"
     id="path4"
     d="m 98.843,128.859 7.21,-28.627 15.341,9.756 -7.29,-15.104 19.104,4.35 -27.065,-16.342 -7.3,4.129 -7.302,-4.129 -27.065,16.342 19.104,-4.35 -7.289,15.104 15.342,-9.756 7.21,28.627" />
  <path
     style="fill:#f9c623;fill-rule:evenodd"
     inkscape:connector-curvature="0"
     id="path6"
     d="m 99.188,77.044 2.408,-32.858 h -0.588 c -0.432,0 -1.734,-1.399 -1.734,-2.38 h -0.863 c 0,0.981 -1.301,2.38 -1.733,2.38 h -0.587 l 2.406,32.858 z M 66.161,64.886 73.136,60.968 37.869,48.507 59.972,48.115 16.003,16.296 66.084,32.754 65.377,28.835 85.128,42.158 71.804,55.56 l 17.322,-3.84 1.498,7.69 5.496,-8.522 -4.409,4.28 -1.098,-5.956 -12.147,2.196 9.953,-9.955 -17.007,-11.677 14.969,3.606 -2.508,-6.271 7.68,4.625 -9.64,-28.686 16.93,24.295 16.927,-24.295 -9.639,28.686 7.679,-4.625 -2.505,6.271 14.967,-3.606 -17.007,11.677 9.955,9.955 -12.148,-2.196 -1.096,5.956 -4.411,-4.28 5.497,8.522 1.498,-7.69 17.321,3.84 -13.321,-13.402 19.748,-13.323 -0.705,3.919 50.08,-16.458 -43.967,31.819 22.103,0.392 -35.27,12.461 6.974,3.918 -32.68,18.498 z" />
  <path
     style="fill:#fddd7a;fill-rule:evenodd"
     inkscape:connector-curvature="0"
     id="path8"
     d="m 98.843,178.876 57.995,-100.628 -7.342,2.945 13.416,-23.281 -3.771,0.475 L 98.843,163.009 38.545,58.387 34.774,57.912 48.19,81.193 40.848,78.248 98.843,178.876 m 90.372,-172.673 -63.607,17.851 3.25,-4.898 68.421,-19.201 -7.286,12.642 -5.327,1.5 4.549,-7.894 m -180.746,0 63.61,17.851 -3.254,-4.898 -68.418,-19.201 7.286,12.642 5.325,1.5 -4.549,-7.894" />
</svg>
